<svg aria-hidden="true" style="position: absolute; width: 0; height: 0; overflow: hidden;" version="1.1" xmlns="http://www.w3.org/2000/svg" xmlns:xlink="http://www.w3.org/1999/xlink">
<defs>
<symbol id="icon-icon-dis-chek" viewBox="0 0 33 32">
<path d="M25.353 2.319v16.232h-17.314v-16.232h17.314zM25.353 0h-17.314c-1.36 0-2.473 1.043-2.473 2.319v16.232c0 1.275 1.113 2.319 2.473 2.319h17.314c1.36 0 2.473-1.043 2.473-2.319v-16.232c0-1.275-1.113-2.319-2.473-2.319z"></path>
<path fill="none" stroke="#000" style="stroke: var(--color1, #000)" stroke-linejoin="miter" stroke-linecap="butt" stroke-miterlimit="4" stroke-width="1.3913" d="M26.048 2.319v-0.696h-18.705v17.623h18.705v-16.927zM8.039 0.696h17.314c1.019 0 1.778 0.774 1.778 1.623v16.232c0 0.85-0.759 1.623-1.778 1.623h-17.314c-1.019 0-1.778-0.774-1.778-1.623v-16.232c0-0.85 0.759-1.623 1.778-1.623z"></path>
</symbol>
<symbol id="icon-icon-check" viewBox="0 0 34 32">
<path fill="#2196f3" style="fill: var(--color2, #2196f3)" d="M4.267 0h25.6c2.356 0 4.267 1.91 4.267 4.267v23.467c0 2.356-1.91 4.267-4.267 4.267h-25.6c-2.356 0-4.267-1.91-4.267-4.267v-23.467c0-2.356 1.91-4.267 4.267-4.267z"></path>
<path fill="#fff" style="fill: var(--color3, #fff); stroke: var(--color3, #fff)" stroke="#fff" stroke-linejoin="miter" stroke-linecap="butt" stroke-miterlimit="4" stroke-width="0.4267" d="M8.442 16.537l-0.147-0.14-2.205 2.088 7.767 7.41 16.318-15.567-2.19-2.089-14.128 13.465-5.416-5.167z"></path>
</symbol>
</defs>
</svg>
